<?xml version="1.0" encoding="UTF-8" standalone="no"?>
<svg width="25px" height="25px" viewBox="0 0 25 25" version="1.1" xmlns="http://www.w3.org/2000/svg" xmlns:xlink="http://www.w3.org/1999/xlink">
    <!-- Generator: Sketch 3.7.2 (28276) - http://www.bohemiancoding.com/sketch -->
    <title>TransitFilled@2x</title>
    <desc>Created with Sketch.</desc>
    <defs></defs>
    <g id="Tab-Icons" stroke="none" stroke-width="1" fill="none" fill-rule="evenodd">
        <g id="SLICES" transform="translate(-139.000000, -30.000000)"></g>
        <g id="Transit-selected" transform="translate(1.500000, 1.000000)" fill="#a6192e">
            <path d="M0.5,1.99456145 C0.5,0.892995579 1.40234375,0 2.49456145,0 L19.5054385,0 C20.6070044,0 21.5,0.90234375 21.5,1.99456145 L21.5,19.0054385 C21.5,20.1070044 20.5976562,21 19.5054385,21 L2.49456145,21 C1.39299558,21 0.5,20.0976562 0.5,19.0054385 L0.5,1.99456145 Z M1.5,5 L20.5,5 L20.5,15 L1.5,15 L1.5,5 Z M5.5,19 C6.05228475,19 6.5,18.5522847 6.5,18 C6.5,17.4477153 6.05228475,17 5.5,17 C4.94771525,17 4.5,17.4477153 4.5,18 C4.5,18.5522847 4.94771525,19 5.5,19 Z M16.5,19 C17.0522847,19 17.5,18.5522847 17.5,18 C17.5,17.4477153 17.0522847,17 16.5,17 C15.9477153,17 15.5,17.4477153 15.5,18 C15.5,18.5522847 15.9477153,19 16.5,19 Z" id="Combined-Shape"></path>
            <path d="M2.5,20.9989566 C2.5,20.4472481 2.94335318,20 3.5093689,20 L5.4906311,20 C6.04809015,20 6.5,20.4426603 6.5,20.9989566 L6.5,22.0010434 C6.5,22.5527519 6.05664682,23 5.4906311,23 L3.5093689,23 C2.95190985,23 2.5,22.5573397 2.5,22.0010434 L2.5,20.9989566 Z" id="Rectangle-36"></path>
            <path d="M15.5,20.9989566 C15.5,20.4472481 15.9433532,20 16.5093689,20 L18.4906311,20 C19.0480902,20 19.5,20.4426603 19.5,20.9989566 L19.5,22.0010434 C19.5,22.5527519 19.0566468,23 18.4906311,23 L16.5093689,23 C15.9519098,23 15.5,22.5573397 15.5,22.0010434 L15.5,20.9989566 Z" id="Rectangle-36-Copy"></path>
        </g>
    </g>
</svg>