<svg viewBox="0 0 25 25" xmlns="http://www.w3.org/2000/svg">
  <g fill="none" fill-rule="evenodd">
    <g transform="translate(.5 .5)">
      <path d="M6.71 4.396c1.266-.882 2.764-1.454 4.384-1.606V1h1.733v1.79c1.62.152 3.118.724 4.383 1.606l1.157-1.38 1.328 1.114-1.163 1.386c1.086 1.11 1.893 2.494 2.307 4.04l1.803-.32.3 1.707-1.816.32c.016.224.025.45.025.678 0 1.385-.306 2.697-.854 3.874l1.622.936-.866 1.5-1.632-.94c-.906 1.256-2.12 2.275-3.535 2.944l.65 1.786-1.628.593-.653-1.79c-.734.19-1.504.29-2.297.29-.793 0-1.562-.1-2.296-.29l-.652 1.79-1.628-.593.65-1.786c-1.414-.67-2.63-1.688-3.536-2.945l-1.63.94L2 16.75l1.622-.936c-.547-1.177-.853-2.49-.853-3.873 0-.227.008-.453.024-.677l-1.817-.32.3-1.706 1.805.318c.414-1.545 1.22-2.93 2.307-4.04L4.225 4.13l1.327-1.113 1.158 1.38zm.093-1.303c1.035-.604 2.186-1.03 3.41-1.243-.04-.11-.062-.228-.062-.352v-.496c0-.553.45-1.002 1-1.002h1.655c.55 0 .997.447.997 1.002v.496c0 .124-.022.243-.063.352 1.224.212 2.375.64 3.41 1.243.04-.11.1-.216.18-.312l.317-.378c.356-.424.988-.48 1.41-.127l1.267 1.065c.422.354.477.983.12 1.41l-.318.378c-.08.096-.175.173-.278.23.78.924 1.398 1.987 1.816 3.145.1-.06.215-.103.34-.125l.486-.086c.545-.096 1.065.267 1.16.81l.288 1.63c.096.542-.267 1.06-.814 1.156l-.487.086c-.125.022-.25.02-.366-.003v.024c0 1.25-.222 2.446-.63 3.553.12.02.235.06.345.123l.43.248c.478.277.643.89.368 1.365l-.828 1.434c-.276.477-.886.64-1.367.363l-.43-.248c-.11-.064-.204-.146-.28-.24-.78.933-1.72 1.725-2.78 2.334.078.09.142.198.186.32l.17.464c.19.52-.078 1.095-.595 1.283l-1.557.566c-.518.188-1.09-.08-1.28-.6l-.17-.467c-.044-.12-.063-.243-.06-.364-.59.104-1.197.158-1.816.158-.62 0-1.226-.054-1.816-.16.004.12-.016.245-.06.365l-.17.466c-.19.52-.763.788-1.28.6l-1.556-.567c-.517-.188-.784-.76-.594-1.283l.17-.465c.043-.12.107-.227.187-.318-1.06-.61-2.002-1.402-2.782-2.335-.076.094-.17.176-.28.24l-.43.248c-.48.277-1.092.113-1.367-.363l-.828-1.434c-.275-.477-.11-1.088.37-1.365l.428-.248c.11-.063.227-.103.344-.122-.407-1.108-.63-2.305-.63-3.554v-.022c-.117.022-.24.024-.365.002l-.488-.086c-.546-.096-.91-.615-.815-1.156l.288-1.63c.095-.544.613-.906 1.16-.81l.488.086c.124.022.238.065.34.126.417-1.16 1.037-2.22 1.816-3.145-.103-.058-.198-.136-.28-.232l-.317-.38c-.357-.423-.302-1.055.12-1.408l1.267-1.065c.423-.354 1.052-.3 1.41.127l.317.38c.08.094.14.2.18.31z" fill="#fff"/>
      <circle stroke="#fff" cx="12.008" cy="12.008" r="6.208"/>
    </g>
  </g>
</svg>
