<svg xmlns="http://www.w3.org/2000/svg" viewBox="0 0 1024 1024">
  <g fill="none" fill-rule="evenodd">
    <rect width="1024" height="1024" fill="#FFF" rx="21"/>
    <path fill="#A6192E" d="M805.357 685.056c2.0072-6.3578 3.0125-13.383 3.0125-27.771 0-14.3873-1.0053-21.4147-3.0124-27.7725-3.679-11.7115-12.378-17.3982-25.089-17.3982-12.377 0-21.075 5.6867-24.755 17.3982-2.006 6.3578-3.011 13.3852-3.011 27.7724 0 14.388 1.005 21.413 3.011 27.771 3.68 11.376 12.378 17.398 24.755 17.398 12.711 0 21.41-6.023 25.09-17.399l-.001.001zm-96.3427 113.4304c-2.007 0-3.3453-1.3386-3.3453-3.346V579.657c0-2.0074 1.3382-3.3446 3.3453-3.3446h40.1435c2.0078 0 3.344 1.3372 3.344 3.3447v11.711h.3357c7.3588-11.041 21.074-18.737 42.4828-18.737 27.098 0 46.5006 13.05 54.8632 38.813 4.014 12.717 5.686 24.762 5.686 45.842 0 20.745-1.672 33.126-5.686 45.839-8.3627 25.431-27.7653 38.814-54.8632 38.814-21.409 0-35.124-7.696-42.4828-18.737h-.3358v71.94c0 2.008-1.336 3.346-3.344 3.346h-40.1434v-.0013zm-92.3293-114.1v-11.041c0-1.3386-.671-2.0082-2.007-2.0082h-22.7494c-19.7363 0-28.7684 5.6888-28.7684 18.4044 0 11.375 8.0282 17.0644 23.416 17.0644 20.072 0 30.109-7.3626 30.109-22.4195h-.0002zm4.0128 53.8713c-2.0064 0-3.3454-1.3386-3.3454-3.3462v-10.7073h-.3337c-8.364 10.7073-22.4142 17.734-44.492 17.734-28.7684 0-53.8585-15.0568-53.8585-49.5208 0-35.802 27.0964-52.1974 67.24-52.1974h28.7698c1.336 0 2.007-.6696 2.007-2.0075v-6.0233c0-15.057-7.361-22.0822-33.119-22.0822-16.391 0-28.4348 4.6825-36.128 10.372-1.6734 1.3373-3.3453 1.0028-4.3485-.6703l-15.0534-26.433c-1.003-2.0076-.669-3.6807 1.004-4.684 13.715-9.7033 33.453-16.061 60.213-16.061 52.856 0 71.923 18.0684 71.923 58.555v103.7258c0 2.0076-1.338 3.3462-3.345 3.3462h-37.133zm-187.672.0003c-2.0064 0-3.3447-1.3386-3.3447-3.347v-93.0184c0-17.7333-8.363-29.4448-25.089-29.4448-16.057 0-25.423 11.7115-25.423 29.4448v93.0185c0 2.009-1.338 3.347-3.346 3.347H335.68c-2.007 0-3.3448-1.338-3.3448-3.347V579.658c0-2.0083 1.3377-3.3454 3.3448-3.3454h40.1427c2.0078 0 3.346 1.337 3.346 3.3454v11.3756h.3338c7.3602-10.0384 21.0752-18.403 41.8154-18.403 35.793 0 55.196 24.7608 55.196 60.2282V734.911c0 2.0084-1.339 3.347-3.346 3.347h-40.1425zm-288.0222-21.4147c-1.3376-1.3393-1.3376-3.347 0-4.6833l21.7448-24.4263c1.3383-1.3394 3.0102-1.3394 4.6822 0 14.3846 11.0418 32.784 17.7326 49.51 17.7326 17.0605 0 25.0887-6.3585 25.0887-15.3914 0-7.696-4.3485-12.38-23.0816-14.053l-18.0643-2.008c-34.121-3.348-52.854-20.411-52.854-49.52 0-31.789 24.42-51.864 66.5698-51.864 27.43 0 50.5125 8.699 65.5665 20.075 1.3383 1.339 1.672 3.345.3344 5.019l-18.733 23.087c-1.338 1.674-3.01 1.674-4.683.67-11.04-7.027-27.096-13.05-43.822-13.05-13.716 0-20.406 5.353-20.406 13.384 0 7.361 4.015 11.711 22.413 13.384l17.73 2.007c38.137 3.681 53.858 22.084 53.858 49.186-.333 33.126-26.092 55.543-72.255 55.543-33.787 0-58.207-11.711-73.5952-25.095l-.003.003zm393.073-499.818c0-2.0074 1.3376-3.346 3.3454-3.346h23.0816c2.008 0 3.346 1.3386 3.346 3.346v144.547c0 36.8067 20.406 55.5435 50.848 55.5435 30.107 0 50.512-18.737 50.512-55.5436V217.027c0-2.0074 1.338-3.346 3.346-3.346h23.0826c2.007 0 3.3447 1.3386 3.3447 3.346v144.8822c0 53.536-30.441 82.9808-80.285 82.9808-50.1797 0-80.62-29.445-80.62-82.9808v-144.882l-.0018-.002zm-184.3233 0c0-2.0076 1.3386-3.3462 3.3457-3.3462h136.82c2.007 0 3.346 1.339 3.346 3.3466v21.08c0 2.0076-1.3383 3.346-3.3454 3.346H385.532c-1.339 0-2.0078.6684-2.0078 2.007v69.2625c0 1.338.6688 2.008 2.0078 2.008h91.993c2.007 0 3.3445 1.337 3.3445 3.345v21.079c0 2.008-1.3376 3.347-3.3446 3.347h-91.993c-1.339 0-2.008.669-2.008 2.007v93.353c0 2.008-1.338 3.346-3.346 3.346h-23.082c-2.007 0-3.346-1.338-3.346-3.346V217.027l.003-.0017zM150.026 418.449c-1.3382-1.3387-1.6726-3.347-.3343-5.0193l14.7183-17.399c1.339-1.673 3.011-1.673 4.6836-.335 14.719 11.7106 37.4662 23.422 63.5588 23.422 31.446 0 50.179-15.7264 50.179-38.8142 0-19.4064-11.04-32.4557-47.502-37.1397l-11.373-1.674c-44.157-6.0238-66.9045-27.102-66.9045-62.905 0-40.4868 29.103-66.586 74.264-66.586 26.761 0 52.519 8.7 69.245 21.08 1.673 1.3385 2.008 3.0115.669 4.684l-11.374 18.4036c-1.3387 1.673-3.0106 1.673-4.683.669-18.399-11.377-35.459-17.0646-54.862-17.0646-27.765 0-43.153 15.0564-43.153 36.806 0 19.072 12.712 31.787 47.837 36.471l11.0382 1.674c44.492 6.022 66.9047 26.4324 66.9047 63.5736 0 39.817-28.1 68.593-82.961 68.593-32.1146 0-63.2245-13.0495-79.9505-28.4408l-.0007.0014z"/>
  </g>
</svg>
